<!DOCTYPE svg PUBLIC "-//W3C//DTD SVG 20010904//EN" "http://www.w3.org/TR/2001/REC-SVG-20010904/DTD/svg10.dtd">
<svg version="1.0" xmlns="http://www.w3.org/2000/svg" width="1200px" height="578px" viewBox="0 0 12000 5780" preserveAspectRatio="xMidYMid meet">
<g id="layer101" fill="#100f0d" stroke="none">
 <path d="M4160 2890 l0 -2890 1845 0 1845 0 0 2890 0 2890 -1845 0 -1845 0 0 -2890z"/>
 </g>
<g id="layer102" fill="#ffdb16" stroke="none">
 <path d="M4160 5744 c0 -21 345 -372 1843 -1875 l1842 -1849 3 52 3 52 -1823 1823 c-1344 1344 -1829 1823 -1845 1823 -18 0 -23 -6 -23 -26z"/>
 <path d="M6075 4000 l1770 -1770 3 52 3 52 -1718 1718 -1718 1718 -55 0 -55 0 1770 -1770z"/>
 <path d="M4521 5766 c2 -3 752 -754 1667 -1669 l1662 -1665 0 57 0 56 -1613 1613 -1612 1612 -54 0 c-30 0 -52 -2 -50 -4z"/>
 <path d="M6286 4207 l1559 -1564 3 51 3 50 -1513 1513 -1513 1513 -49 0 -48 0 1558 -1563z"/>
 <path d="M6386 4310 c802 -803 1459 -1460 1461 -1460 2 0 3 25 3 56 l0 55 -1402 1405 -1401 1404 -59 0 -59 0 1457 -1460z"/>
 <path d="M6490 4415 l1355 -1355 3 52 3 52 -1303 1303 -1303 1303 -55 0 -55 0 1355 -1355z"/>
 <path d="M6595 4520 l1250 -1250 3 52 3 52 -1198 1198 -1198 1198 -55 0 -55 0 1250 -1250z"/>
 <path d="M6700 4625 l1145 -1145 3 52 3 52 -1093 1093 -1093 1093 -55 0 -55 0 1145 -1145z"/>
 <path d="M6800 4725 c575 -575 1046 -1045 1047 -1045 2 0 3 24 3 53 l0 53 -990 992 -990 992 -58 0 -57 0 1045 -1045z"/>
 <path d="M5981 5766 c2 -3 424 -425 937 -940 l932 -934 0 51 0 52 -888 888 -887 887 -49 0 c-27 0 -47 -2 -45 -4z"/>
 <path d="M7010 4935 l835 -835 3 52 3 52 -783 783 -783 783 -55 0 -55 0 835 -835z"/>
 <path d="M6557 5598 c95 -95 424 -426 732 -735 l561 -562 0 57 0 57 -678 678 -677 677 -55 0 -55 0 172 -172z"/>
 <path d="M7220 5145 l625 -625 3 52 3 52 -573 573 -573 573 -55 0 -55 0 625 -625z"/>
 <path d="M7320 5245 l525 -525 3 57 3 57 -468 468 -468 468 -60 0 -60 0 525 -525z"/>
 <path d="M7430 5355 l415 -415 3 47 3 47 -368 368 -368 368 -50 0 -50 0 415 -415z"/>
 <path d="M7530 5455 l315 -315 3 52 3 52 -263 263 -263 263 -55 0 -55 0 315 -315z"/>
 <path d="M7635 5560 l210 -210 3 52 3 52 -158 158 -158 158 -55 0 -55 0 210 -210z"/>
 <path d="M7740 5665 l105 -106 3 52 c3 51 2 53 -50 106 -51 51 -54 53 -107 53 l-56 0 105 -105z"/>
 <path d="M4160 5554 l0 -59 1845 -1845 1845 -1845 0 56 0 56 -1845 1848 -1845 1848 0 -59z"/>
 <path d="M4160 5345 l0 -50 1845 -1845 1845 -1845 0 50 0 50 -1845 1845 -1845 1845 0 -50z"/>
 <path d="M4160 5138 l0 -57 1845 -1848 1845 -1848 0 60 0 60 -1845 1845 -1845 1845 0 -57z"/>
 <path d="M4160 4930 l0 -55 1845 -1845 1845 -1845 0 55 0 55 -1845 1845 -1845 1845 0 -55z"/>
 <path d="M4160 4723 l0 -52 706 -708 c389 -389 1219 -1221 1845 -1848 l1139 -1141 0 56 0 55 -1845 1845 -1845 1845 0 -52z"/>
 <path d="M4160 4510 l0 -55 1845 -1845 1845 -1845 0 55 0 55 -1845 1845 -1845 1845 0 -55z"/>
 <path d="M4162 4307 l3 -57 1843 -1843 1843 -1843 -3 51 -3 52 -1843 1849 -1843 1849 3 -58z"/>
 <path d="M4160 4098 l0 -56 1845 -1848 1844 -1849 1 56 0 57 -1845 1848 -1845 1847 0 -55z"/>
 <path d="M4160 3890 l0 -55 1845 -1845 1845 -1845 0 55 0 55 -1845 1845 -1845 1845 0 -55z"/>
 <path d="M4160 3682 l0 -57 1808 -1808 c1772 -1772 1808 -1807 1845 -1807 32 0 38 3 35 19 -2 11 -832 850 -1845 1865 l-1843 1846 0 -58z"/>
 <path d="M4160 3470 l0 -55 1703 -1703 1703 -1703 52 3 52 3 -1755 1755 -1755 1755 0 -55z"/>
 <path d="M4160 3268 l0 -57 1599 -1601 1598 -1601 57 3 56 3 -1655 1655 -1655 1655 0 -57z"/>
 <path d="M4160 3055 l0 -50 1498 -1498 1498 -1498 47 3 47 3 -1545 1545 -1545 1545 0 -50z"/>
 <path d="M4160 2850 l0 -55 1393 -1393 1393 -1393 52 3 52 3 -1445 1445 -1445 1445 0 -55z"/>
 <path d="M4160 2640 l0 -55 1288 -1288 1288 -1288 52 3 52 3 -1340 1340 -1340 1340 0 -55z"/>
 <path d="M4160 2435 l0 -50 1188 -1188 1188 -1188 47 3 47 3 -1235 1235 -1235 1235 0 -50z"/>
 <path d="M4160 2225 l0 -60 1078 -1078 1078 -1078 55 3 55 3 -1133 1135 -1133 1135 0 -60z"/>
 <path d="M4160 2015 l0 -50 978 -978 978 -978 47 3 47 3 -1025 1025 -1025 1025 0 -50z"/>
 <path d="M4160 1806 l0 -54 870 -871 870 -871 57 0 58 0 -925 925 c-509 509 -926 925 -927 925 -2 0 -3 -24 -3 -54z"/>
 <path d="M4160 1600 l0 -55 768 -768 768 -768 52 3 52 3 -820 820 -820 820 0 -55z"/>
 <path d="M4160 1391 l0 -49 665 -666 666 -666 52 0 52 0 -715 715 c-393 393 -716 715 -717 715 -2 0 -3 -22 -3 -49z"/>
 <path d="M4160 1179 l0 -54 558 -558 558 -558 52 3 52 3 -603 603 c-331 331 -605 605 -609 609 -5 3 -8 -18 -8 -48z"/>
 <path d="M4160 980 l0 -55 458 -458 458 -458 52 3 52 3 -510 510 -510 510 0 -55z"/>
 <path d="M4160 770 l0 -55 353 -353 353 -353 52 3 52 3 -405 405 -405 405 0 -55z"/>
 <path d="M4160 560 l0 -55 248 -248 248 -248 52 3 52 3 -300 300 -300 300 0 -55z"/>
 <path d="M4160 355 l0 -60 143 -143 143 -143 57 3 57 3 -200 200 -200 200 0 -60z"/>
 <path d="M4160 136 c0 -51 2 -56 42 -90 36 -31 49 -36 92 -36 l51 0 -90 90 c-49 50 -91 90 -92 90 -2 0 -3 -24 -3 -54z"/>
 </g>

</svg>