<!DOCTYPE svg PUBLIC "-//W3C//DTD SVG 20010904//EN" "http://www.w3.org/TR/2001/REC-SVG-20010904/DTD/svg10.dtd">
<svg version="1.0" xmlns="http://www.w3.org/2000/svg" width="460px" height="542px" viewBox="0 0 4600 5420" preserveAspectRatio="xMidYMid meet">
<g id="layer101" fill="#040405" stroke="none">
 <path d="M3178 5222 c-49 -30 -53 -50 -53 -252 l1 -187 34 -69 c28 -55 40 -70 61 -72 31 -4 48 16 76 88 72 185 72 415 1 482 -35 32 -77 36 -120 10z"/>
 <path d="M2699 5117 c-18 -12 -47 -44 -64 -71 l-30 -49 0 -526 c0 -460 -2 -530 -16 -561 -21 -46 -40 -61 -89 -67 -35 -5 -45 -2 -70 22 -35 34 -49 88 -57 223 -7 129 -20 170 -63 200 -43 29 -81 28 -118 -3 -41 -34 -62 -84 -62 -145 0 -84 -27 -112 -66 -69 -18 20 -19 42 -22 333 -1 171 -4 321 -7 333 -8 36 -72 73 -126 73 -48 0 -64 -11 -89 -59 -8 -17 -15 -108 -21 -275 -16 -518 -20 -622 -24 -641 -2 -11 -7 -41 -10 -67 -8 -65 -14 -78 -42 -89 -34 -13 -61 5 -80 49 -32 78 -91 132 -145 132 -37 0 -84 -35 -112 -82 -44 -76 -60 -180 -61 -398 l0 -195 -32 -61 c-18 -34 -38 -68 -45 -75 -28 -30 -219 -288 -266 -360 -95 -145 -142 -284 -208 -609 -29 -141 -44 -406 -32 -550 19 -207 92 -411 214 -597 131 -197 345 -394 587 -539 228 -136 534 -218 822 -218 210 0 395 12 470 29 102 24 258 101 367 183 76 56 97 79 119 130 30 68 95 145 256 302 128 126 153 156 185 220 62 127 68 164 93 635 6 103 4 131 -14 199 -11 44 -25 118 -31 165 -36 299 -93 471 -176 531 l-44 31 0 181 c0 208 -9 242 -63 253 -58 12 -65 15 -76 43 -8 22 -34 405 -29 430 4 17 -16 110 -28 134 -18 34 -62 68 -117 88 l-42 16 -6 81 c-4 57 -12 91 -27 115 -25 41 -62 63 -90 54 -20 -7 -75 -59 -111 -106 -15 -20 -22 -22 -32 -13 -38 37 -59 370 -39 608 15 181 24 475 16 520 -8 40 -55 99 -97 121 -43 22 -110 18 -150 -9z"/>
 </g>
<g id="layer102" fill="#0c0627" stroke="none">
 <path d="M3230 5180 c-12 -8 -11 -10 8 -10 12 0 22 5 22 10 0 13 -11 13 -30 0z"/>
 <path d="M3183 5130 c-16 -6 -23 -18 -23 -35 0 -17 4 -24 11 -19 7 4 6 -2 -2 -17 -8 -16 -12 -66 -11 -149 1 -151 1 -164 9 -156 11 11 32 -28 22 -40 -7 -8 -1 -11 20 -10 26 1 32 6 43 43 6 23 16 39 22 36 5 -4 6 -1 1 6 -4 7 -3 23 3 34 17 34 40 137 31 137 -5 0 -2 18 6 39 13 37 12 39 -5 36 -20 -4 -33 17 -23 40 3 10 1 15 -7 13 -7 -2 -16 8 -20 22 -6 28 -39 36 -77 20z m21 -19 c-10 -10 -21 -17 -23 -15 -6 6 20 34 32 34 6 0 2 -8 -9 -19z"/>
 <path d="M2750 4980 c-11 -11 -27 -20 -36 -20 -8 0 -13 -4 -10 -9 3 -5 -1 -12 -10 -15 -9 -4 -14 -9 -11 -13 4 -3 1 -13 -6 -21 -9 -11 -13 -133 -17 -494 -4 -411 -7 -480 -20 -488 -9 -6 -10 -10 -3 -10 9 0 9 -8 1 -32 -13 -40 -41 -72 -86 -100 -32 -19 -35 -20 -75 -4 -54 20 -96 21 -52 1 17 -8 24 -14 16 -15 -36 -1 -122 81 -121 116 1 5 7 -2 15 -16 8 -14 14 -20 14 -15 1 17 -17 40 -31 40 -19 0 -26 41 -27 166 -1 127 -9 147 -55 135 -31 -8 -65 -75 -76 -153 -13 -94 -24 -113 -62 -113 -27 0 -38 7 -58 38 -25 37 -25 38 -30 333 -4 215 -8 300 -17 311 -7 8 -9 18 -5 22 4 4 3 7 -3 5 -5 -1 -18 1 -27 5 -28 13 -50 2 -67 -31 -9 -18 -22 -33 -28 -33 -16 0 -17 -26 -2 -36 9 -5 10 -67 5 -228 -4 -122 -8 -234 -8 -249 -1 -20 -3 -24 -9 -15 -5 7 -6 -17 -2 -54 4 -44 2 -68 -4 -68 -6 0 -11 -32 -11 -76 -1 -79 -17 -148 -32 -139 -5 3 -10 -16 -12 -42 -2 -34 -7 -48 -18 -49 -28 -1 -60 -15 -55 -25 4 -5 -8 -9 -26 -9 -26 0 -30 2 -19 15 12 15 6 35 -12 35 -5 0 -7 -8 -4 -17 6 -15 4 -15 -14 2 -11 10 -20 25 -20 34 0 9 -8 28 -18 42 -15 24 -23 26 -64 24 -28 -1 -48 2 -48 8 0 11 -14 0 -16 -11 -2 -18 -17 -41 -23 -37 -4 2 -8 -1 -9 -8 -1 -7 -7 -39 -14 -72 -11 -54 -12 -57 -18 -30 -6 29 -6 29 -14 6 -5 -14 -4 -27 3 -34 14 -14 15 -272 1 -353 -13 -72 -29 -116 -41 -108 -5 3 -6 -3 -2 -12 4 -12 3 -15 -5 -10 -8 5 -12 -2 -12 -20 0 -34 -36 -75 -59 -67 -14 4 -14 3 -1 -6 13 -9 13 -13 -4 -28 -10 -10 -16 -12 -12 -5 4 6 3 12 -3 12 -16 0 -44 -48 -37 -65 7 -20 -65 -179 -74 -164 -5 7 -9 5 -13 -5 -4 -9 -2 -16 3 -16 10 0 -49 -109 -86 -157 -13 -17 -24 -36 -24 -42 0 -6 -4 -11 -9 -11 -5 0 -13 -9 -16 -20 -4 -11 -11 -17 -17 -14 -6 4 -8 3 -5 -3 3 -5 -5 -31 -18 -56 -14 -28 -26 -42 -29 -35 -3 7 -4 2 -1 -12 2 -14 1 -36 -2 -50 -6 -22 -7 -23 -15 -4 -7 15 -8 14 -5 -8 2 -14 -2 -59 -8 -100 -7 -40 -13 -63 -14 -51 -2 37 -21 37 -21 -1 0 -19 4 -36 10 -38 5 -1 7 -13 4 -25 -4 -13 -11 -20 -16 -17 -6 4 -8 -5 -3 -25 4 -21 3 -31 -5 -31 -7 0 -11 -13 -9 -33 4 -63 -1 -103 -11 -87 -21 33 11 -345 35 -415 6 -17 5 -18 -5 -5 -10 13 -11 12 -6 -3 3 -10 6 -34 6 -53 0 -37 19 -48 21 -11 1 15 5 10 14 -18 7 -22 11 -51 9 -65 -4 -21 -3 -22 4 -6 7 17 9 17 15 4 3 -9 3 -27 0 -40 -3 -16 -2 -19 5 -9 9 13 13 3 24 -64 2 -11 9 -27 17 -35 9 -10 10 -15 2 -18 -6 -2 -11 -11 -11 -19 0 -9 6 -13 14 -10 8 3 18 -5 25 -19 7 -15 7 -23 1 -19 -5 3 -10 1 -10 -4 0 -6 7 -11 15 -11 8 0 17 -11 21 -25 3 -14 9 -25 14 -25 8 0 46 -81 43 -92 -2 -5 3 -7 10 -5 7 1 11 -7 9 -20 -2 -13 2 -23 7 -23 6 0 11 -7 11 -15 0 -8 8 -15 18 -15 24 0 56 -35 46 -51 -4 -8 -3 -10 5 -5 7 4 15 -2 20 -16 4 -13 17 -23 27 -23 11 0 18 -6 17 -12 -2 -7 1 -12 5 -10 15 4 101 -75 96 -88 -3 -7 2 -15 10 -18 9 -4 16 -2 16 3 0 5 7 7 15 4 8 -4 15 -14 15 -23 0 -11 3 -12 8 -4 6 10 17 8 47 -8 22 -12 43 -26 46 -31 3 -5 10 -8 15 -7 20 3 35 -1 30 -10 -3 -5 11 -11 32 -14 20 -2 62 -16 92 -29 30 -14 74 -31 97 -38 23 -7 41 -16 38 -19 -2 -4 9 -7 23 -6 19 0 26 -5 24 -15 -3 -11 -1 -12 8 -4 13 13 80 -3 80 -18 0 -5 4 -6 10 -3 5 3 18 1 27 -4 14 -8 15 -10 3 -11 -13 0 -13 -2 -1 -9 8 -5 24 -6 35 -2 12 4 29 6 39 3 18 -4 18 -4 0 -18 -16 -12 -16 -13 -1 -14 9 0 19 4 23 9 3 5 17 6 33 2 15 -5 73 -14 130 -21 83 -11 124 -11 210 -1 59 7 116 9 126 5 11 -4 17 -3 14 2 -6 10 32 17 94 18 20 0 35 3 33 7 -6 9 89 21 108 13 8 -3 30 2 48 12 18 9 51 17 72 17 23 0 34 3 26 8 -9 5 -4 10 17 15 16 4 40 15 54 24 14 9 34 20 44 24 16 5 17 4 6 -9 -11 -13 -10 -14 4 -9 9 3 16 15 16 25 0 10 5 19 10 19 6 0 12 0 15 0 3 0 14 9 25 20 12 12 25 18 30 15 6 -3 7 1 4 9 -5 14 4 20 26 18 3 0 6 7 7 16 1 9 10 53 21 97 11 44 23 96 26 116 4 21 17 53 30 72 14 20 22 37 20 40 -8 8 76 78 86 72 6 -3 7 1 4 9 -5 13 2 16 32 16 25 0 34 3 26 9 -9 5 2 13 35 26 26 10 57 25 67 34 18 15 18 15 7 -6 -14 -27 -16 -66 -2 -43 6 8 7 18 5 22 -3 4 2 8 10 8 12 0 14 5 6 25 -9 24 -6 29 13 26 5 -1 5 4 2 10 -4 6 -3 21 3 32 6 12 15 36 20 52 5 17 15 29 21 27 7 -1 12 6 11 15 -1 10 -2 29 -1 43 1 20 3 22 11 10 9 -13 10 -13 10 0 0 8 3 26 6 40 5 21 4 22 -6 10 -10 -13 -11 -12 -5 5 33 101 39 157 39 390 1 132 4 224 7 205 6 -28 7 -23 5 20 -1 41 -5 54 -15 52 -10 -2 -12 8 -7 45 3 26 2 40 -2 30 -10 -23 -37 92 -29 122 3 11 0 22 -5 23 -12 4 -47 127 -48 168 -1 21 -3 22 -9 7 -6 -16 -10 -14 -36 15 -16 18 -42 58 -56 90 -26 53 -27 66 -31 231 -1 97 -5 175 -8 174 -3 -1 -24 17 -47 41 -24 23 -40 42 -35 43 4 0 -3 4 -15 9 -22 9 -26 23 -24 80 1 23 0 23 -9 5 -6 -14 -8 -2 -5 40 3 40 2 50 -3 30 -8 -28 -8 -28 -15 19 -9 65 -9 88 2 82 4 -3 7 5 6 17 -4 40 -7 42 -16 17 -6 -17 -7 -1 -4 48 4 48 2 71 -5 67 -6 -4 -10 14 -10 50 0 43 -6 65 -26 98 -15 23 -31 45 -37 48 -5 4 -4 8 4 11 7 2 9 9 5 17 -7 11 -10 11 -16 0 -7 -10 -14 -10 -32 -2 -18 9 -19 12 -5 12 26 1 20 21 -7 21 -35 0 -46 20 -53 94 -3 36 -12 71 -19 77 -8 6 -14 20 -14 30 0 11 -7 19 -15 19 -12 0 -13 -4 -6 -18 8 -14 6 -18 -10 -19 -10 -1 -19 2 -19 8 0 5 -7 9 -15 9 -8 0 -15 -4 -15 -10 0 -5 4 -10 9 -10 4 0 -1 -24 -13 -54 -13 -34 -24 -50 -29 -42 -5 6 -6 -5 -3 -25 5 -28 2 -42 -15 -60 -11 -13 -18 -19 -15 -13 3 7 -1 17 -9 24 -10 9 -15 9 -15 1 0 -6 -6 -11 -13 -11 -29 0 -80 166 -78 254 0 33 -4 65 -11 73 -7 9 -8 38 -3 96 5 45 9 183 10 307 2 236 12 361 26 325 12 -32 -1 94 -17 157 -7 32 -11 66 -7 75 3 10 3 15 -2 11 -4 -4 -16 4 -27 17 -24 30 -61 32 -88 5z m-425 -1560 c-3 -5 1 -10 9 -10 9 0 16 -4 16 -10 0 -5 5 -10 11 -10 5 0 7 5 3 12 -5 8 -2 9 12 4 10 -5 25 -9 32 -9 6 0 12 -7 12 -14 0 -8 5 -11 10 -8 6 3 10 2 10 -4 0 -5 -8 -12 -17 -14 -14 -4 -12 -5 5 -6 12 0 22 4 22 9 0 7 6 7 19 0 25 -13 155 -13 199 -1 21 7 43 6 59 0 29 -11 45 -3 23 11 -21 13 -6 12 24 -1 14 -7 23 -15 21 -20 -3 -4 -1 -10 5 -14 5 -3 10 0 10 7 0 7 6 2 13 -12 13 -25 3 -45 -16 -33 -5 3 -7 0 -5 -8 6 -14 11 -15 38 -5 22 9 43 -32 42 -77 -1 -21 2 -36 7 -33 5 3 19 -22 31 -57 13 -34 26 -66 30 -72 13 -19 20 -46 10 -40 -6 3 -10 -1 -10 -10 0 -9 4 -13 10 -10 5 3 20 -4 32 -16 13 -12 17 -18 9 -14 -10 5 -12 4 -7 -4 4 -6 11 -9 16 -6 4 3 19 -7 32 -22 13 -16 31 -29 39 -31 21 -5 48 -32 45 -45 -2 -7 -1 -9 1 -4 8 12 25 8 20 -5 -5 -16 23 -68 37 -68 6 0 5 5 -2 12 -7 7 -12 17 -12 22 0 6 9 -2 19 -18 11 -17 18 -33 15 -37 -2 -4 1 -9 6 -11 13 -4 20 -41 10 -48 -4 -3 -3 -16 2 -30 10 -24 11 -24 18 -5 5 15 9 6 16 -35 4 -30 7 -68 6 -85 -1 -24 0 -26 7 -10 7 17 8 16 14 -10 3 -17 1 -32 -4 -33 -6 -2 -5 -10 2 -19 7 -8 14 -26 15 -41 4 -36 24 -72 40 -72 30 0 44 -45 43 -131 0 -46 3 -93 7 -104 4 -11 28 -38 52 -60 24 -22 50 -52 58 -66 12 -24 11 -29 -4 -40 -15 -12 -15 -12 -5 1 7 9 8 21 4 29 -6 10 -10 8 -16 -6 -5 -10 -7 -21 -7 -25 3 -13 -10 -9 -29 8 -14 12 -16 21 -9 35 13 24 -5 35 -19 12 -9 -15 -12 -16 -20 -4 -6 10 -5 21 5 35 16 24 18 36 4 36 -5 0 -10 -9 -10 -19 0 -28 -14 -33 -36 -15 -19 15 -19 15 1 9 15 -5 17 -3 9 5 -10 10 -30 17 -57 19 -5 1 -5 6 -2 11 3 6 -3 10 -15 10 -11 0 -23 7 -26 15 -4 8 -15 15 -26 15 -19 0 -108 67 -108 82 0 4 8 9 18 9 16 1 16 2 0 6 -10 2 -18 8 -18 13 0 7 38 7 95 1 6 -1 3 -6 -5 -12 -12 -8 -12 -9 5 -7 11 1 30 -3 42 -10 15 -8 24 -9 28 -1 9 14 -3 60 -22 81 -8 9 -12 21 -9 26 3 5 0 15 -8 21 -8 7 -12 21 -9 31 4 14 0 20 -11 20 -10 0 -14 5 -11 10 9 14 -4 52 -16 45 -9 -6 -12 9 -10 55 1 22 0 23 -8 5 -8 -19 -8 -19 -15 2 -4 13 -5 27 -2 31 3 5 1 22 -4 38 -6 21 -9 24 -9 9 -2 -18 -3 -18 -16 5 -8 14 -14 38 -15 53 0 16 -7 35 -16 44 -8 9 -13 22 -10 29 3 8 2 13 -2 12 -4 -2 -19 8 -34 21 -20 18 -25 28 -17 37 6 8 6 14 0 18 -5 4 -12 2 -16 -3 -10 -17 -35 0 -35 24 0 12 -8 29 -17 36 -15 12 -16 12 -9 -6 9 -23 8 -23 -38 38 -20 26 -36 51 -36 56 0 5 -7 14 -16 22 -10 8 -13 21 -9 36 3 15 1 23 -7 23 -18 0 -40 38 -32 52 4 6 3 8 -3 5 -6 -4 -18 12 -27 36 -17 46 -72 87 -115 87 -12 0 -19 5 -16 10 4 6 -25 10 -80 10 -64 0 -90 4 -101 15 -9 8 -21 15 -27 15 -7 0 -6 -4 3 -10 24 -16 -9 -13 -64 6 -27 9 -58 13 -74 10 -15 -4 -36 -8 -47 -10 -11 -1 -19 -7 -18 -12 2 -13 -28 -44 -38 -38 -5 3 -9 -2 -9 -10 0 -8 -12 -32 -26 -53 -31 -47 -37 -52 -28 -29 5 14 4 17 -4 12 -7 -4 -12 -14 -12 -22 0 -8 -7 -14 -15 -14 -9 0 -18 -8 -22 -17 -10 -29 -45 -63 -65 -63 -26 0 -60 -19 -76 -42 -10 -13 -26 -18 -64 -18 -40 0 -49 -3 -44 -15 4 -12 -3 -13 -39 -8 -44 6 -56 -2 -36 -22 6 -6 1 -20 -14 -37 -12 -15 -25 -24 -28 -21 -3 3 -3 -5 0 -18 4 -15 3 -20 -5 -15 -7 4 -12 4 -13 -1 0 -4 -2 -19 -3 -32 -2 -14 -8 -27 -14 -29 -7 -2 -12 -9 -12 -17 0 -7 -8 -19 -17 -26 -14 -12 -16 -12 -8 0 5 10 4 12 -4 7 -6 -4 -9 -11 -6 -15 2 -5 -2 -17 -10 -27 -9 -12 -14 -14 -15 -6 0 20 -20 3 -20 -17 0 -10 -18 -33 -39 -52 -80 -70 -124 -104 -132 -102 -4 2 -11 -7 -15 -20 -4 -12 -15 -33 -25 -46 -11 -13 -19 -33 -19 -45 0 -12 -11 -51 -25 -86 -26 -65 -31 -85 -17 -63 6 9 17 7 42 -9 33 -21 33 -23 12 -26 -12 -2 -20 -7 -17 -12 3 -4 14 -6 25 -3 11 3 20 0 20 -5 0 -13 -35 -34 -43 -26 -3 3 -25 3 -49 -2 -39 -7 -40 -8 -18 -15 15 -4 -21 -7 -85 -8 -129 0 -140 5 -139 68 1 50 26 71 79 69 30 -1 29 -1 -5 -8 -45 -10 -8 -12 54 -4 27 4 46 12 46 19 0 7 6 15 14 18 8 3 17 21 21 39 11 53 54 180 67 195 9 11 13 12 20 1 6 -9 7 -6 3 8 -3 13 0 28 8 36 8 7 19 24 26 36 7 12 17 20 23 16 7 -4 8 -3 4 4 -7 11 32 38 47 34 5 -1 6 2 3 7 -4 5 3 13 15 16 11 4 18 9 15 12 -3 3 8 18 24 33 17 16 30 33 30 39 0 6 4 11 8 11 5 0 14 11 20 25 8 17 16 23 28 18 14 -5 16 -2 11 16 -7 27 1 53 14 45 5 -3 6 1 4 9 -3 7 -1 24 4 38 8 19 10 20 10 5 1 -15 4 -16 16 -6 19 16 19 30 0 30 -8 0 -13 6 -11 13 3 6 7 24 10 40 5 23 10 26 30 21 16 -4 25 -1 29 10 4 9 1 16 -6 17 -20 1 35 20 71 25 18 2 32 0 32 -6 0 -15 16 -12 34 6 9 8 22 12 28 8 7 -4 10 -4 6 1 -9 10 46 46 73 48 10 1 17 4 17 7 -1 17 3 23 11 12 6 -10 11 -9 22 4 9 12 10 15 2 10 -20 -11 -15 -1 9 20 12 10 18 13 14 7 -4 -7 -5 -13 -1 -13 3 0 10 11 15 25 13 34 28 32 22 -2 -4 -23 -2 -26 9 -16 19 19 19 41 1 48 -10 4 -12 9 -6 13 10 7 61 81 80 117 6 11 21 25 32 31 12 6 19 14 14 19 -4 4 4 5 18 2 14 -3 34 -1 45 3 27 11 27 11 20 0z m-1071 -534 c-6 -16 -24 -23 -24 -8 0 10 22 33 27 28 2 -2 1 -11 -3 -20z m1432 -391 c10 -8 27 -15 37 -15 10 0 17 -8 17 -21 0 -11 4 -18 9 -14 6 3 13 -11 16 -32 3 -21 10 -52 16 -69 6 -22 6 -47 -2 -80 -6 -27 -13 -102 -14 -166 -2 -64 -6 -122 -10 -127 -3 -6 0 -11 8 -11 8 0 22 -17 31 -37 9 -21 29 -60 45 -88 24 -40 30 -62 30 -112 1 -34 -2 -69 -5 -78 -6 -14 -10 -13 -31 7 l-25 23 13 -30 c8 -16 18 -33 22 -36 5 -4 -5 -22 -22 -40 -17 -19 -31 -28 -31 -21 0 7 7 15 15 18 8 4 15 10 15 15 0 17 -52 -24 -61 -48 -5 -13 -16 -23 -26 -23 -15 0 -16 2 -3 10 12 8 12 10 -5 9 -11 0 -29 -4 -40 -9 -18 -8 -18 -9 5 -10 14 -2 18 -4 9 -7 -20 -5 -69 13 -69 27 0 5 10 10 23 10 12 0 29 5 37 10 21 13 0 13 -54 -2 -42 -11 -46 -10 -69 13 -54 56 -66 88 -62 177 2 46 6 86 9 89 3 4 6 -2 6 -12 0 -18 1 -18 15 1 8 10 14 24 15 29 0 6 -5 3 -11 -5 -8 -11 -9 -9 -3 10 9 34 11 35 31 19 15 -12 16 -12 10 4 -4 10 -7 23 -7 28 0 6 -4 7 -10 4 -15 -9 -12 11 3 27 8 7 14 20 15 28 2 32 14 96 22 115 11 26 28 219 29 318 1 73 12 117 29 117 5 0 17 -7 28 -15z m-754 -185 c35 -27 42 -69 14 -80 -20 -8 -20 -9 3 -9 l24 -1 -9 -142 c-12 -199 -11 -271 5 -276 7 -2 24 -15 38 -28 14 -13 30 -24 35 -24 5 0 6 -10 2 -22 -3 -13 -3 -20 1 -16 10 10 33 -14 46 -49 12 -32 3 -153 -12 -153 -6 0 -7 -4 -4 -10 3 -5 -1 -10 -10 -10 -9 0 -13 -5 -10 -11 10 -15 -41 -84 -73 -99 -15 -7 -51 -14 -81 -15 -46 -1 -54 2 -64 22 -5 12 -13 20 -17 18 -4 -3 -14 3 -21 12 -8 9 -9 14 -4 11 6 -4 12 3 12 15 1 12 -1 17 -5 12 -14 -20 -30 -14 -40 15 -8 21 -7 30 1 33 9 3 7 13 -6 35 -15 26 -16 41 -8 109 6 43 16 95 24 117 l14 39 11 -49 11 -49 -5 49 c-3 27 -8 55 -11 62 -3 9 2 14 12 14 14 0 15 3 5 15 -8 10 -10 27 -5 52 6 32 9 35 15 18 6 -14 9 1 10 45 8 282 12 316 31 304 5 -3 10 1 11 8 0 7 2 18 2 23 2 15 16 35 25 35 5 0 20 -9 33 -20z"/>
 <path d="M2563 3333 c9 -2 25 -2 35 0 9 3 1 5 -18 5 -19 0 -27 -2 -17 -5z"/>
 <path d="M2740 3300 c-13 -11 -19 -20 -13 -20 5 0 18 9 28 20 10 11 16 20 13 20 -3 0 -15 -9 -28 -20z"/>
 <path d="M2650 3250 c0 -13 20 -13 40 0 12 8 9 10 -12 10 -16 0 -28 -4 -28 -10z"/>
 <path d="M1855 3030 c3 -5 12 -10 20 -10 8 0 17 5 20 10 4 6 -5 10 -20 10 -15 0 -24 -4 -20 -10z"/>
 <path d="M2920 2920 c11 -20 30 -28 30 -12 0 11 -22 32 -32 32 -5 0 -4 -9 2 -20z"/>
 <path d="M3065 2820 c10 -11 22 -20 27 -20 4 0 -1 9 -12 20 -11 11 -23 20 -27 20 -3 0 2 -9 12 -20z"/>
 <path d="M1463 2521 c1 -15 4 -17 14 -9 17 14 16 28 -1 28 -8 0 -14 -9 -13 -19z"/>
 <path d="M3230 2502 c0 -7 7 -20 15 -28 19 -20 20 -4 0 22 -9 12 -14 14 -15 6z"/>
 <path d="M1353 2355 c-3 -9 -3 -18 0 -21 9 -9 27 6 27 22 0 19 -19 18 -27 -1z"/>
 <path d="M1320 2301 c0 -11 5 -23 10 -26 6 -3 10 3 10 14 0 11 -4 23 -10 26 -5 3 -10 -3 -10 -14z"/>
 <path d="M3350 2306 c0 -8 5 -18 10 -21 6 -3 10 1 10 9 0 8 -4 18 -10 21 -5 3 -10 -1 -10 -9z"/>
 <path d="M3344 2230 c3 -14 6 -31 6 -37 0 -7 5 -13 10 -13 15 0 12 34 -6 56 -15 18 -15 18 -10 -6z"/>
 <path d="M1110 2230 c-13 -8 -13 -10 2 -10 9 0 19 -8 21 -17 3 -11 5 -7 6 10 1 29 -5 33 -29 17z"/>
 <path d="M3295 2179 c-4 -6 -13 -8 -21 -5 -8 3 -14 -1 -14 -9 0 -20 54 -12 58 9 4 18 -13 22 -23 5z"/>
 <path d="M1203 2133 c15 -2 37 -2 50 0 12 2 0 4 -28 4 -27 0 -38 -2 -22 -4z"/>
 <path d="M2545 1767 c-4 -10 -5 -21 -1 -24 10 -10 18 4 13 24 -4 17 -4 17 -12 0z"/>
 <path d="M2520 1646 c0 -8 5 -18 10 -21 6 -3 10 3 10 14 0 12 -4 21 -10 21 -5 0 -10 -6 -10 -14z"/>
 <path d="M2770 1621 c0 -11 4 -21 9 -21 18 0 21 18 6 30 -13 10 -15 9 -15 -9z"/>
 <path d="M1856 2145 c8 -37 14 -45 14 -19 0 10 -5 26 -10 34 -8 11 -9 7 -4 -15z"/>
 <path d="M1823 1530 c0 -25 2 -35 4 -22 2 12 2 32 0 45 -2 12 -4 2 -4 -23z"/>
 <path d="M2050 1555 c0 -8 -4 -15 -10 -15 -5 0 -10 -7 -10 -15 0 -21 16 -19 24 3 3 9 9 23 12 30 3 6 1 12 -5 12 -6 0 -11 -7 -11 -15z"/>
 <path d="M1987 1422 c-29 -32 -13 -47 17 -16 17 17 21 34 8 34 -5 0 -16 -8 -25 -18z"/>
 <path d="M3131 4858 c-1 -16 4 -28 9 -28 12 0 12 8 0 35 -8 18 -9 17 -9 -7z"/>
 <path d="M1927 4674 c-9 -10 2 -24 19 -24 8 0 14 7 14 15 0 15 -21 21 -33 9z"/>
 <path d="M1860 4620 c0 -19 3 -21 12 -12 9 9 9 15 0 24 -9 9 -12 7 -12 -12z"/>
 <path d="M2080 4017 c-7 -18 -15 -35 -18 -39 -2 -5 0 -8 5 -8 9 0 38 69 31 75 -2 2 -10 -10 -18 -28z"/>
 <path d="M3030 3905 c-25 -14 -25 -14 -2 -15 12 0 22 4 22 9 0 6 19 12 43 14 l42 4 -40 1 c-22 1 -51 -5 -65 -13z"/>
 <path d="M3214 3865 c-3 -8 -1 -27 4 -42 10 -27 10 -26 11 15 1 43 -5 54 -15 27z"/>
 <path d="M2563 3843 c-7 -2 -12 -14 -12 -26 1 -18 2 -19 6 -4 4 14 8 15 18 7 9 -8 15 -8 20 0 4 6 1 9 -7 8 -7 -2 -12 3 -10 10 1 6 1 12 0 11 -2 0 -9 -3 -15 -6z"/>
 <path d="M3200 3775 c0 -8 4 -15 9 -15 5 0 11 7 15 15 3 9 0 15 -9 15 -8 0 -15 -7 -15 -15z"/>
 <path d="M3296 3592 c-3 -6 -1 -14 5 -17 15 -10 25 3 12 16 -7 7 -13 7 -17 1z"/>
 <path d="M3550 2536 c0 -14 4 -27 8 -30 5 -3 6 8 4 25 -5 35 -12 38 -12 5z"/>
 <path d="M3740 2211 c0 -5 7 -14 15 -21 13 -10 15 -9 15 9 0 12 -6 21 -15 21 -8 0 -15 -4 -15 -9z"/>
 <path d="M3763 1795 c0 -22 2 -30 4 -17 2 12 2 30 0 40 -3 9 -5 -1 -4 -23z"/>
 <path d="M820 1419 c0 -11 5 -17 10 -14 6 3 10 13 10 21 0 8 -4 14 -10 14 -5 0 -10 -9 -10 -21z"/>
 <path d="M3620 975 c0 -8 7 -15 15 -15 8 0 15 7 15 15 0 8 -7 15 -15 15 -8 0 -15 -7 -15 -15z"/>
 <path d="M1060 874 c1 -16 28 -45 34 -36 3 5 -3 17 -14 27 -11 10 -20 14 -20 9z"/>
 <path d="M1310 605 c0 -13 43 -46 51 -38 4 4 -5 16 -21 25 -17 9 -30 15 -30 13z"/>
 <path d="M3174 475 c-17 -13 -17 -14 -2 -15 9 0 20 5 23 11 11 17 0 20 -21 4z"/>
 <path d="M1584 425 c22 -17 40 -20 32 -6 -3 5 -16 11 -28 14 -22 6 -22 5 -4 -8z"/>
 <path d="M2445 300 l-30 -8 33 -1 c17 0 32 4 32 9 0 6 -1 9 -2 9 -2 -1 -16 -5 -33 -9z"/>
 </g>
<g id="layer103" fill="#2a1402" stroke="none">
 <path d="M3204 5112 c-6 -4 -19 -23 -29 -42 -15 -28 -19 -58 -19 -156 0 -113 2 -124 27 -166 33 -57 52 -57 68 -2 7 24 17 41 21 38 4 -3 5 2 2 11 -4 8 0 22 7 31 8 9 15 51 17 102 3 75 1 94 -20 139 -23 52 -44 65 -74 45z"/>
 <path d="M2750 4980 c-11 -11 -22 -20 -25 -20 -3 0 -15 -9 -27 -20 -12 -11 -18 -20 -14 -20 5 0 2 -7 -5 -17 -11 -13 -15 -109 -20 -492 -3 -262 -8 -489 -13 -506 -12 -49 -30 -80 -46 -80 -8 0 -15 -6 -15 -13 0 -24 -58 -52 -109 -52 -64 0 -106 26 -148 93 -32 51 -33 55 -36 184 -4 143 -11 160 -56 149 -31 -8 -65 -75 -76 -153 -13 -94 -24 -113 -62 -113 -27 0 -38 7 -58 38 -25 37 -25 38 -30 333 -4 215 -8 300 -17 311 -7 8 -9 19 -5 23 4 5 2 5 -5 1 -6 -3 -14 -2 -18 4 -12 20 -53 10 -71 -17 -17 -25 -20 -58 -26 -268 -4 -132 -9 -267 -12 -300 -15 -174 -30 -286 -47 -338 -11 -31 -19 -64 -19 -72 0 -7 -6 -18 -14 -22 -8 -4 -14 -12 -13 -18 1 -5 -19 -11 -46 -13 -41 -3 -50 0 -72 25 -13 15 -25 35 -25 43 0 8 -8 27 -18 41 -15 24 -23 27 -66 24 -36 -2 -54 -8 -67 -23 -9 -12 -19 -19 -21 -17 -3 3 -5 -1 -6 -7 0 -7 -8 -44 -16 -83 -10 -45 -16 -121 -16 -210 -1 -157 -16 -254 -48 -309 -12 -20 -22 -42 -22 -47 0 -6 -18 -32 -40 -58 -22 -26 -40 -52 -40 -58 0 -7 -6 -18 -13 -25 -7 -7 -39 -67 -72 -133 -32 -65 -78 -148 -102 -183 -24 -36 -43 -68 -43 -72 0 -5 -4 -10 -8 -12 -5 -1 -22 -28 -39 -58 -43 -77 -68 -172 -123 -475 -21 -113 -25 -266 -9 -364 11 -70 51 -215 73 -266 7 -16 21 -57 31 -90 17 -60 83 -215 96 -225 3 -3 14 -21 24 -40 22 -42 57 -94 68 -98 4 -2 7 -7 7 -11 0 -5 16 -25 35 -45 19 -21 35 -41 35 -46 0 -5 8 -11 18 -15 9 -3 44 -30 76 -60 33 -30 63 -52 68 -49 4 3 8 0 8 -6 0 -6 17 -19 38 -28 20 -10 53 -26 72 -37 19 -10 41 -20 49 -21 8 -2 17 -7 20 -12 3 -5 20 -12 38 -15 17 -3 51 -15 75 -26 39 -18 331 -118 369 -126 9 -2 36 -10 60 -18 24 -8 92 -21 152 -28 114 -14 80 -16 522 42 94 12 239 55 277 81 14 10 31 18 36 18 6 0 17 7 25 15 8 8 21 16 28 17 19 4 96 82 102 104 10 35 35 148 41 185 4 21 17 53 30 72 14 20 22 37 20 40 -5 5 94 97 104 97 4 0 30 11 57 25 28 13 55 25 61 25 21 0 84 93 84 123 0 7 7 25 15 41 9 16 29 84 45 150 24 97 31 152 36 276 7 170 -7 379 -31 480 -60 247 -64 258 -103 297 -21 21 -50 64 -65 95 -24 52 -26 68 -27 195 -1 190 -3 195 -69 261 -31 32 -61 73 -68 92 -16 48 -40 222 -49 355 -6 93 -11 116 -32 150 -31 48 -42 60 -67 69 -39 14 -65 61 -72 132 -7 58 -12 70 -31 80 -51 25 -79 -5 -107 -112 -16 -62 -25 -76 -51 -80 -32 -5 -57 35 -86 140 -11 39 -23 107 -28 151 -10 100 5 662 21 776 11 75 10 94 -6 163 -10 43 -27 88 -37 102 -24 29 -61 31 -88 4z m-378 -1573 c20 -8 39 -13 42 -9 3 3 6 -2 6 -12 0 -9 5 -14 10 -11 6 3 10 2 10 -3 0 -11 8 -12 105 -18 52 -3 102 0 144 10 57 13 66 13 97 -2 19 -8 34 -20 34 -24 0 -5 13 -26 29 -46 17 -20 34 -55 39 -77 11 -45 42 -127 75 -195 20 -42 71 -93 149 -150 36 -25 84 -86 90 -111 2 -8 6 -17 11 -20 4 -3 9 -15 11 -26 3 -11 9 -29 14 -39 6 -11 22 -70 37 -132 24 -106 45 -155 87 -211 15 -19 18 -41 17 -110 0 -47 3 -95 7 -106 4 -11 28 -38 52 -60 54 -49 76 -87 59 -104 -18 -18 -44 -13 -65 14 -11 14 -22 25 -25 25 -3 0 -24 17 -46 38 -59 54 -69 62 -81 62 -6 0 -13 7 -16 15 -4 8 -15 15 -26 15 -29 0 -108 70 -108 96 0 35 43 36 106 3 31 -16 56 -24 60 -18 8 14 -5 66 -22 80 -8 6 -14 20 -14 30 0 10 -4 21 -10 24 -5 3 -10 15 -10 26 0 10 -4 19 -8 19 -5 0 -21 33 -36 73 -14 39 -36 91 -46 115 -11 23 -20 49 -20 58 0 8 -9 32 -19 53 -17 33 -36 55 -103 118 -59 55 -105 126 -175 265 -57 116 -78 131 -203 148 -144 19 -203 29 -248 42 -39 11 -47 10 -80 -7 -20 -11 -55 -45 -79 -75 -81 -105 -200 -210 -238 -210 -8 0 -17 -4 -20 -10 -3 -5 -17 -10 -30 -10 -13 0 -26 -4 -30 -9 -3 -5 -30 -15 -60 -22 -30 -7 -53 -15 -50 -17 3 -3 -3 -15 -14 -26 -10 -12 -29 -45 -41 -73 -12 -29 -26 -53 -31 -53 -5 0 -9 -6 -9 -13 0 -15 -136 -157 -188 -197 -18 -14 -38 -24 -43 -22 -6 1 -8 -2 -4 -7 3 -6 -4 -15 -15 -21 -11 -6 -20 -15 -20 -21 0 -6 -9 -22 -20 -36 -11 -14 -20 -35 -20 -47 0 -11 -9 -46 -21 -76 -19 -51 -20 -56 -4 -65 39 -23 65 -47 65 -60 0 -15 -40 -42 -40 -28 0 4 -5 1 -10 -7 -7 -11 -36 -16 -126 -19 -145 -4 -164 3 -164 65 0 38 4 45 30 59 23 12 45 14 90 9 50 -5 60 -4 60 9 0 8 6 17 14 20 8 3 17 21 21 39 20 96 72 220 106 248 3 3 11 15 18 28 7 12 17 20 23 16 6 -4 8 -3 5 3 -4 6 5 18 19 27 35 23 114 103 114 115 0 5 3 11 8 13 25 11 102 177 102 220 0 21 36 56 70 70 14 6 48 12 75 15 55 5 128 39 191 90 23 18 44 29 48 26 3 -4 6 1 6 10 0 9 8 21 18 26 9 6 13 11 7 11 -6 0 -6 3 1 8 10 7 61 81 80 117 6 11 22 26 35 32 13 7 20 13 14 13 -5 0 1 6 15 13 26 14 48 11 112 -16z m348 -912 c0 -8 5 -15 10 -15 6 0 10 -9 10 -21 0 -11 4 -18 9 -14 6 3 13 -11 16 -32 3 -21 10 -52 15 -69 7 -22 7 -48 -2 -85 -7 -30 -12 -106 -12 -169 -1 -124 -3 -115 78 -263 53 -97 25 -232 -59 -289 -59 -39 -97 -43 -153 -16 -55 26 -80 49 -111 101 -20 33 -23 48 -19 118 2 48 8 83 15 87 14 9 60 136 74 207 22 113 37 246 37 336 0 116 9 139 57 139 24 0 35 -5 35 -15z m-815 -175 c-3 -5 0 -7 8 -5 7 3 22 -4 33 -16 17 -18 19 -36 19 -143 0 -66 -3 -172 -5 -235 -4 -89 -2 -115 8 -119 7 -2 25 -15 39 -28 14 -13 29 -24 33 -24 4 0 11 -11 14 -25 4 -14 10 -25 15 -25 5 0 15 -16 21 -35 13 -40 4 -155 -12 -155 -5 0 -6 -4 -3 -10 3 -5 1 -10 -4 -10 -6 0 -11 -6 -11 -13 0 -21 -46 -78 -80 -98 -19 -12 -49 -19 -79 -19 -44 0 -51 4 -89 44 -56 60 -65 85 -64 192 0 72 6 108 26 169 14 42 26 87 26 100 0 12 7 42 15 66 10 27 18 94 21 176 5 141 7 153 36 196 18 24 48 41 33 17z"/>
 </g>
<g id="layer104" fill="#504a49" stroke="none">
 <path d="M3191 5085 c-28 -37 -34 -79 -29 -198 6 -128 39 -202 73 -166 24 27 59 162 59 234 1 121 -54 191 -103 130z"/>
 <path d="M2747 4971 c-16 -10 -41 -35 -55 -56 l-27 -38 -5 -486 c-6 -550 -5 -543 -83 -601 -35 -26 -50 -30 -104 -30 -56 0 -66 3 -98 32 -20 17 -47 53 -61 79 -21 43 -24 61 -24 164 0 121 -8 155 -39 155 -41 0 -73 -70 -96 -212 -11 -71 -58 -88 -104 -39 -43 46 -53 128 -49 402 3 246 0 266 -42 289 -27 14 -53 -1 -73 -42 -12 -26 -16 -91 -20 -313 -7 -385 -43 -622 -103 -682 -21 -21 -32 -24 -61 -20 -45 8 -57 18 -82 72 -26 56 -57 77 -100 69 -42 -9 -77 -52 -91 -116 -7 -29 -14 -129 -15 -223 -3 -226 -22 -294 -119 -425 -22 -30 -73 -119 -113 -198 -40 -79 -90 -170 -113 -203 -22 -32 -40 -63 -40 -68 0 -5 -7 -14 -16 -22 -42 -35 -74 -134 -133 -424 -70 -339 -53 -472 114 -902 25 -62 69 -151 101 -199 60 -92 207 -254 230 -254 8 0 14 -4 14 -9 0 -8 92 -71 120 -81 8 -3 47 -21 85 -39 81 -38 113 -50 250 -97 55 -19 120 -41 145 -50 258 -90 403 -102 695 -60 99 14 200 28 225 32 113 15 307 116 370 192 17 21 31 52 35 81 12 81 38 175 61 219 38 71 127 138 227 171 42 14 63 46 109 171 44 118 69 234 79 379 11 154 -2 399 -26 501 -68 278 -66 273 -104 311 -70 67 -84 112 -94 309 -8 146 -12 180 -29 208 -11 17 -24 32 -29 32 -16 0 -64 61 -77 98 -19 54 -30 127 -46 307 -8 88 -21 172 -28 186 -8 15 -41 49 -74 77 -63 52 -74 74 -74 146 0 41 -25 76 -55 76 -32 0 -63 -45 -76 -112 -12 -60 -40 -101 -65 -96 -45 9 -102 191 -110 350 -5 97 5 441 23 758 11 194 -43 289 -130 231z m-331 -1577 c88 -43 98 -45 161 -42 38 2 89 10 114 18 102 30 163 -26 218 -204 45 -144 87 -204 210 -299 77 -60 115 -131 148 -282 24 -108 73 -234 99 -256 10 -8 14 -37 14 -95 0 -45 4 -94 9 -107 5 -13 34 -50 65 -83 58 -62 68 -87 39 -102 -25 -13 -41 -5 -94 48 -48 48 -114 97 -172 126 -96 50 -138 116 -83 130 29 7 89 -11 106 -32 16 -19 50 -18 50 2 0 13 -23 60 -77 159 -15 28 -101 254 -109 288 -3 15 -34 55 -68 90 -72 73 -132 145 -155 187 -9 17 -34 65 -55 108 -72 141 -68 139 -276 167 -63 9 -137 23 -163 31 -45 15 -52 15 -89 -2 -21 -10 -49 -31 -61 -48 -26 -39 -110 -140 -118 -144 -3 -1 -20 -15 -38 -31 -38 -34 -166 -97 -221 -110 -64 -14 -86 -35 -129 -124 -31 -62 -59 -100 -113 -155 -40 -39 -86 -82 -103 -95 -45 -33 -95 -84 -95 -95 0 -5 -7 -15 -15 -22 -8 -7 -17 -28 -21 -49 -4 -20 -13 -48 -20 -63 -22 -42 -17 -66 16 -83 38 -20 56 -51 40 -70 -20 -25 -80 -35 -202 -35 -114 0 -118 1 -134 25 -23 35 -12 88 22 103 14 7 51 12 83 12 66 0 94 21 106 80 22 109 81 228 139 280 73 66 176 174 176 185 0 7 6 18 14 24 8 7 29 56 46 110 31 95 34 100 74 119 22 11 64 22 93 25 52 6 144 46 174 76 9 9 33 30 53 46 19 17 36 36 36 43 0 6 4 12 10 12 5 0 21 23 36 52 37 73 95 128 135 128 17 0 74 -21 125 -46z m321 -913 c24 -29 45 -101 45 -159 0 -20 -3 -102 -7 -182 -7 -135 -6 -149 15 -200 12 -30 29 -64 39 -75 24 -28 51 -104 51 -145 0 -42 -27 -116 -56 -152 -28 -36 -92 -68 -134 -68 -47 0 -123 46 -155 93 -49 73 -54 158 -15 242 61 130 100 322 100 491 0 67 5 135 11 152 17 49 67 51 106 3z m-783 -190 c23 -41 25 -135 6 -323 -12 -121 -6 -163 27 -175 27 -11 83 -73 99 -111 8 -19 14 -60 14 -91 -1 -69 -46 -159 -102 -204 -31 -25 -46 -30 -92 -29 -65 0 -96 20 -135 85 -23 38 -26 53 -26 147 0 83 5 119 22 170 38 110 74 324 72 428 -2 85 0 94 22 118 32 34 67 29 93 -15z"/>
 </g>
<g id="layer105" fill="#fbc81f" stroke="none">
 <path d="M3190 5078 c-26 -42 -34 -102 -28 -202 6 -86 37 -171 61 -164 24 8 66 159 66 241 1 133 -53 201 -99 125z"/>
 <path d="M2731 4954 c-23 -21 -48 -49 -54 -63 -8 -18 -13 -176 -17 -511 -5 -466 -6 -487 -26 -524 -11 -22 -37 -53 -57 -70 -33 -26 -45 -30 -101 -30 -54 0 -70 4 -99 27 -20 15 -48 52 -62 82 -24 48 -28 70 -33 184 -5 144 -14 161 -60 119 -30 -29 -39 -53 -59 -153 -17 -92 -25 -105 -64 -105 -36 0 -74 48 -88 110 -6 25 -11 162 -11 305 -1 239 -2 262 -19 283 -26 31 -64 29 -87 -5 -17 -25 -19 -60 -25 -339 -3 -171 -8 -315 -11 -320 -3 -5 -11 -52 -17 -104 -16 -128 -46 -225 -78 -250 -53 -42 -117 -14 -152 64 -22 52 -31 58 -78 58 -83 0 -113 -83 -113 -313 0 -235 -20 -302 -136 -471 -29 -42 -67 -108 -84 -145 -17 -37 -35 -76 -41 -86 -5 -10 -19 -35 -30 -55 -11 -20 -42 -71 -69 -112 -27 -41 -61 -95 -75 -119 -28 -48 -70 -195 -81 -281 -4 -30 -12 -71 -19 -90 -7 -19 -20 -98 -30 -176 -17 -133 -17 -147 -1 -258 9 -64 23 -134 30 -154 7 -20 30 -88 51 -151 21 -63 44 -126 51 -140 8 -14 14 -32 14 -39 0 -17 78 -163 120 -225 18 -27 67 -83 109 -126 148 -149 286 -223 631 -338 350 -116 453 -131 685 -98 55 7 154 21 220 29 177 24 280 62 409 153 60 43 75 70 97 178 37 183 87 256 213 316 33 16 66 29 73 29 38 0 112 162 155 340 21 87 23 118 23 355 0 237 -2 269 -24 365 -46 205 -67 266 -105 302 -19 18 -47 60 -62 93 -26 55 -28 71 -32 220 -4 138 -7 165 -25 198 -11 20 -24 37 -28 37 -5 0 -21 13 -37 28 -49 48 -69 135 -92 405 -12 138 -28 183 -76 217 -76 54 -94 83 -94 156 0 48 -25 84 -59 84 -25 0 -57 -52 -71 -115 -33 -147 -93 -119 -151 70 -29 94 -36 330 -18 655 17 301 17 413 0 465 -28 85 -64 95 -130 39z m-326 -1554 c88 -46 163 -59 235 -40 25 7 66 14 91 17 41 4 50 1 82 -27 36 -31 87 -120 87 -151 0 -24 53 -148 83 -196 15 -23 55 -64 89 -92 35 -28 73 -60 85 -72 47 -45 83 -128 114 -261 17 -73 43 -155 58 -181 14 -27 34 -63 43 -80 14 -25 17 -45 12 -94 -8 -75 10 -117 80 -187 48 -47 60 -88 30 -100 -28 -11 -35 -7 -86 42 -28 26 -58 54 -67 62 -23 21 -116 80 -126 80 -4 0 -28 16 -52 36 -35 29 -43 42 -41 63 4 38 54 41 115 7 25 -14 47 -26 49 -26 15 0 -2 62 -34 118 -20 37 -50 101 -66 142 -16 41 -34 89 -41 105 -7 17 -18 48 -25 70 -18 54 -35 80 -101 145 -81 80 -115 129 -176 248 -30 59 -64 117 -75 128 -24 26 -72 39 -203 55 -55 6 -118 18 -140 25 -84 29 -141 12 -185 -54 -92 -135 -222 -230 -380 -276 -44 -13 -61 -24 -82 -55 -16 -22 -28 -44 -28 -50 0 -24 -76 -127 -134 -182 -33 -32 -93 -89 -132 -126 -67 -64 -72 -73 -99 -157 -27 -86 -28 -90 -10 -100 44 -26 68 -53 62 -70 -12 -31 -68 -44 -201 -48 -117 -2 -129 -1 -142 17 -16 22 -18 68 -4 95 13 25 65 41 111 34 53 -9 85 14 99 68 28 106 60 182 105 242 26 37 51 66 55 66 17 0 142 137 169 184 16 28 41 87 55 131 32 97 51 113 149 127 125 17 228 92 320 232 94 141 126 152 252 86z m329 -912 c13 -18 32 -62 41 -97 14 -53 14 -78 6 -150 -24 -189 -7 -311 50 -376 25 -28 49 -100 49 -146 0 -50 -30 -129 -61 -160 -64 -64 -135 -75 -213 -31 -100 55 -143 184 -96 288 68 152 99 297 109 513 6 143 10 165 26 177 31 23 62 17 89 -18z m-785 -184 c29 -37 34 -111 18 -284 -13 -152 -9 -220 14 -220 16 0 99 -89 110 -117 5 -13 9 -53 9 -87 0 -135 -110 -260 -215 -243 -128 21 -180 190 -121 398 47 169 66 284 66 404 0 107 1 115 26 144 32 38 65 40 93 5z"/>
 </g>

</svg>