<!DOCTYPE svg PUBLIC "-//W3C//DTD SVG 20010904//EN" "http://www.w3.org/TR/2001/REC-SVG-20010904/DTD/svg10.dtd">
<svg version="1.0" xmlns="http://www.w3.org/2000/svg" width="500px" height="500px" viewBox="0 0 5000 5000" preserveAspectRatio="xMidYMid meet">
<g id="layer101" fill="#060704" stroke="none">
<path d="M2910 4434 c-84 -23 -128 -33 -210 -48 -41 -8 -88 -19 -104 -26 -16 -6 -66 -13 -110 -15 -193 -10 -549 -45 -558 -54 -4 -4 -9 -616 -10 -1361 -2 -745 -5 -1560 -8 -1810 -5 -364 -3 -457 7 -463 18 -11 16 -28 -2 -21 -20 8 -19 -10 1 -30 18 -18 38 -11 30 10 -4 9 2 14 17 15 144 3 557 8 683 7 144 0 171 3 260 27 121 33 137 41 194 100 l45 46 2 642 c4 1035 1 2274 -7 2928 0 3 -22 20 -49 37 -55 36 -92 39 -181 16z"/>
</g>
<g id="layer102" fill="#2e2e24" stroke="none">
<path d="M2910 4434 c-84 -23 -128 -33 -210 -48 -41 -8 -88 -19 -104 -26 -16 -6 -66 -13 -110 -15 -150 -8 -532 -43 -553 -50 -10 -3 -13 -141 -15 -615 -3 -606 -3 -610 17 -604 11 4 20 7 21 8 3 10 58 70 59 66 1 -3 18 13 37 35 56 66 449 455 459 455 5 0 9 7 9 16 0 10 5 14 16 10 9 -3 12 -2 9 4 -4 6 12 28 34 49 23 22 41 45 41 51 0 6 4 9 9 6 8 -5 31 18 82 82 8 10 38 17 62 13 4 0 7 13 7 29 0 23 7 35 28 47 16 9 35 30 42 46 12 27 14 28 26 13 8 -11 14 -13 19 -6 3 5 11 8 16 5 5 -4 9 -1 9 6 0 6 -8 9 -20 6 -18 -5 -18 -2 6 26 15 18 38 41 52 52 14 11 34 28 44 38 10 10 23 15 28 12 5 -3 7 0 4 8 -7 20 40 49 55 34 8 -8 11 -5 12 11 1 12 3 27 4 32 1 6 3 13 4 18 1 4 8 -4 16 -18 13 -24 13 -24 13 15 0 22 3 52 7 67 12 46 -1 72 -54 106 -55 36 -92 39 -181 16z"/>
<path d="M3010 4079 c0 -11 5 -17 10 -14 6 3 10 13 10 21 0 8 -4 14 -10 14 -5 0 -10 -9 -10 -21z"/>
<path d="M2683 3135 c-8 -9 -9 -16 -3 -20 6 -3 13 1 16 10 9 21 2 26 -13 10z"/>
<path d="M3108 2755 c-104 -116 -392 -394 -401 -388 -5 3 -7 1 -4 -4 8 -13 -109 -134 -132 -137 -9 -2 -16 -7 -16 -12 0 -18 -17 -34 -27 -28 -7 4 -8 2 -4 -4 4 -7 -13 -32 -41 -59 -26 -26 -43 -41 -39 -33 5 8 -7 -3 -25 -25 -52 -60 -69 -76 -78 -71 -5 3 -17 -4 -27 -17 -19 -22 -19 -22 1 -7 12 8 10 4 -5 -9 -14 -13 -25 -27 -25 -30 0 -3 -3 -5 -7 -4 -5 2 -8 -2 -8 -8 0 -5 -5 -7 -12 -3 -6 4 -8 3 -4 -4 3 -6 -5 -19 -19 -30 -13 -11 -22 -22 -18 -25 3 -4 -3 -10 -13 -14 -10 -3 -23 -13 -27 -20 -5 -7 -13 -10 -19 -7 -6 4 -8 3 -4 -4 8 -14 -53 -74 -67 -65 -7 3 -9 3 -5 -2 11 -12 -32 -67 -48 -61 -8 3 -13 0 -11 -7 1 -7 -4 -11 -11 -9 -8 1 -11 -1 -9 -6 6 -9 -18 -39 -53 -67 l-25 -20 19 23 c11 12 16 25 13 29 -4 3 -7 0 -7 -8 -1 -10 -5 -8 -15 5 -8 11 -15 15 -15 9 0 -7 5 -15 10 -18 7 -4 8 -11 1 -18 -5 -7 -10 -16 -11 -22 -2 -5 -4 -14 -6 -20 -1 -5 -4 -209 -6 -452 -2 -348 0 -444 9 -448 7 -2 13 -9 13 -14 0 -6 -7 -8 -15 -5 -20 8 -19 -10 1 -30 18 -18 38 -11 30 10 -4 9 2 14 17 15 144 3 557 8 683 7 144 0 171 3 260 27 111 30 140 43 171 77 21 22 23 26 23 48 0 6 5 10 11 10 5 0 7 -5 3 -12 -4 -7 -3 -8 4 -4 6 4 8 14 5 23 -4 11 -3 14 5 9 9 -5 12 14 13 71 0 43 3 106 5 140 5 57 3 63 -14 63 -10 0 -22 -3 -25 -6 -4 -4 -21 -8 -39 -9 -18 -1 -49 -5 -68 -9 -32 -6 -33 -6 -10 5 14 7 30 13 35 14 6 1 13 3 18 5 4 1 12 4 17 5 6 1 11 3 13 5 5 4 43 11 60 11 14 0 17 9 17 45 0 28 -4 44 -12 44 -10 0 -10 2 0 8 10 7 13 99 12 443 -1 239 -1 591 0 783 0 192 -2 351 -4 353 -2 3 -19 -12 -38 -32z m-128 -1750 c-7 -9 -6 -16 6 -26 13 -11 24 -10 64 4 54 19 95 23 70 7 -12 -8 -12 -10 -1 -10 8 0 11 -3 8 -6 -4 -4 -14 -1 -24 7 -9 8 -14 9 -10 3 4 -7 -19 -17 -66 -27 -90 -21 -167 -28 -167 -16 0 5 5 9 11 9 5 0 7 6 3 13 -6 9 -5 9 7 0 12 -10 18 -10 28 0 9 9 14 9 20 -2 7 -11 12 -11 32 0 l24 14 -28 3 c-27 3 -28 4 -10 19 16 13 16 14 1 9 -10 -3 -18 -1 -18 4 0 10 30 18 48 12 9 -3 9 -8 2 -17z m10 -120 c0 -18 -26 -20 -36 -3 -5 8 -2 9 9 5 10 -3 17 -2 17 3 0 6 2 10 5 10 3 0 5 -7 5 -15z m-146 -7 c-5 -7 -2 -9 9 -5 12 5 14 2 9 -11 -17 -43 -39 -59 -99 -74 -60 -15 -62 -15 -53 3 6 10 17 16 25 13 8 -4 15 -1 15 5 0 6 6 11 14 11 8 0 17 7 20 16 5 14 9 14 23 3 9 -8 14 -9 11 -4 -8 14 9 55 22 55 6 0 8 -5 4 -12z m261 -20 c8 -8 -85 -29 -145 -33 -25 -2 -58 -8 -73 -14 -30 -12 -52 -6 -42 10 4 5 14 9 25 9 10 0 20 7 24 15 7 18 27 20 24 3 -3 -14 -1 -13 72 7 47 12 104 14 115 3z m-120 -78 c-11 -5 -27 -9 -35 -9 -13 -1 -13 0 0 9 8 5 24 9 35 9 l20 0 -20 -9z m-55 -10 c0 -12 -8 -12 -35 0 -18 8 -17 9 8 9 15 1 27 -3 27 -9z m118 1 c18 -11 -38 -31 -82 -30 l-31 1 33 8 c19 4 39 13 45 19 13 13 18 13 35 2z m-258 -17 c0 -12 -63 -30 -91 -26 l-34 6 40 11 c37 11 85 16 85 9z"/>
<path d="M1929 2087 c7 -7 30 -7 73 0 l63 10 -73 0 c-50 0 -70 -3 -63 -10z"/>
</g>
<g id="layer103" fill="#5c5e57" stroke="none">
<path d="M2998 2636 c-79 -80 -184 -187 -234 -238 -51 -51 -105 -105 -120 -120 -16 -14 -87 -84 -157 -155 -158 -158 -126 -127 -297 -296 -80 -80 -175 -174 -212 -210 l-68 -66 -1 -373 c-1 -205 -3 -405 -5 -445 -2 -55 0 -72 11 -77 8 -3 15 -10 15 -15 0 -6 -7 -8 -15 -5 -20 8 -19 -10 1 -30 18 -18 38 -11 30 10 -7 17 -10 17 245 14 212 -2 335 11 384 41 17 10 50 41 75 70 25 28 94 102 155 163 60 62 141 145 179 184 48 50 77 72 95 73 14 1 35 2 45 3 11 1 21 6 23 13 5 13 -34 12 -55 -1 -26 -16 -10 15 24 46 l36 33 -2 430 c0 237 -1 578 -1 759 1 181 -1 331 -3 334 -3 2 -69 -61 -148 -142z"/>
<path d="M3030 1065 c-14 -7 -28 -11 -32 -9 -5 3 -8 1 -8 -4 0 -5 11 -9 25 -9 14 0 25 2 25 6 0 3 21 5 46 2 25 -2 51 2 57 8 17 17 4 22 -33 11 -20 -6 -38 -6 -44 -1 -7 6 -21 4 -36 -4z"/>
<path d="M3036 954 c-27 -7 -66 -15 -85 -17 -36 -4 -55 -10 -101 -29 -25 -11 -24 -11 14 -20 21 -4 41 -6 44 -3 3 3 -3 5 -13 5 -10 0 -16 3 -12 6 7 8 128 24 197 28 46 2 55 5 55 21 0 24 -34 27 -99 9z"/>
<path d="M3121 846 c-1 -14 -6 -17 -22 -13 -22 6 -62 -21 -53 -35 3 -5 12 -4 20 3 11 9 14 8 14 -5 0 -9 -5 -16 -11 -16 -5 0 -8 -4 -4 -9 3 -5 -4 -12 -15 -16 -11 -3 -20 -10 -20 -13 0 -4 -40 -7 -90 -6 -49 1 -90 -2 -90 -6 0 -4 15 -15 33 -24 20 -10 24 -16 12 -14 -11 1 -26 -1 -32 -5 -9 -6 -11 -3 -7 7 5 12 0 16 -20 16 -14 0 -26 -4 -26 -10 0 -5 -27 -9 -62 -8 -78 2 -117 -13 -118 -45 0 -4 42 -7 93 -7 88 1 249 34 301 62 24 13 62 48 52 48 -4 0 7 20 24 45 17 25 29 51 27 58 -3 7 -6 4 -6 -7z m-170 -135 c-8 -5 -20 -7 -28 -4 -21 8 -15 13 15 13 20 0 23 -3 13 -9z"/>
<path d="M3014 813 c-4 -10 -6 -21 -6 -25 1 -4 -9 -10 -23 -14 -14 -3 -22 -10 -19 -15 9 -15 42 9 59 41 9 17 11 30 6 30 -5 0 -12 -8 -17 -17z"/>
<path d="M2940 811 c-8 -6 -17 -8 -22 -5 -10 6 -198 -27 -198 -36 0 -7 73 -3 133 6 20 3 37 10 37 15 0 5 5 9 11 9 5 0 7 -4 4 -10 -4 -6 5 -8 22 -6 32 4 83 23 83 31 0 9 -54 5 -70 -4z"/>
<path d="M2593 670 c-31 -12 -29 -30 2 -30 14 0 25 2 25 4 0 2 3 11 6 20 7 18 0 19 -33 6z"/>
</g>
<g id="layer104" fill="#9f8c29" stroke="none">
<path d="M2910 4434 c-84 -23 -128 -33 -210 -48 -41 -8 -88 -19 -104 -26 -16 -6 -66 -13 -110 -15 -150 -8 -532 -43 -553 -50 -10 -3 -13 -141 -15 -614 -3 -540 -1 -608 12 -598 8 6 286 283 618 614 550 551 602 606 602 635 0 42 -6 51 -60 87 -51 35 -92 38 -180 15z"/>
<path d="M2998 2636 c-79 -80 -184 -187 -234 -238 -51 -51 -105 -105 -120 -120 -16 -14 -87 -84 -157 -155 -158 -158 -126 -127 -297 -296 -80 -80 -175 -174 -212 -210 l-68 -66 -1 -373 c-1 -205 -3 -405 -5 -445 -2 -55 0 -72 11 -77 8 -3 15 -10 15 -15 0 -6 -7 -8 -15 -5 -20 8 -19 -10 1 -30 18 -18 38 -11 30 10 -7 17 -10 17 245 14 205 -2 335 11 379 38 14 8 48 39 75 69 28 30 100 105 160 167 61 62 135 139 167 172 31 32 69 71 85 86 15 14 43 42 62 61 l33 34 -1 429 c-1 236 -2 577 -2 758 1 181 -1 331 -3 334 -3 2 -69 -61 -148 -142z"/>
</g>
<g id="layer105" fill="#7e817f" stroke="none">
<path d="M2946 812 c-3 -5 8 -6 25 -4 16 2 29 6 29 8 0 8 -49 4 -54 -4z"/>
<path d="M2933 723 c9 -2 25 -2 35 0 9 3 1 5 -18 5 -19 0 -27 -2 -17 -5z"/>
<path d="M2938 703 c-16 -2 -28 -9 -28 -15 0 -6 -9 -8 -20 -5 -11 3 -23 1 -26 -4 -3 -5 -9 -7 -14 -4 -5 3 -14 -3 -19 -14 -10 -18 -9 -18 49 -4 33 9 60 20 60 25 0 5 8 7 18 4 13 -4 19 -1 19 9 0 8 -3 14 -6 14 -3 -1 -18 -4 -33 -6z"/>
<path d="M2716 671 c-10 -11 -24 -17 -31 -15 -7 3 -16 1 -19 -4 -10 -16 81 -13 94 4 8 8 9 14 4 13 -21 -4 -28 2 -14 11 13 8 13 10 -1 10 -9 0 -24 -9 -33 -19z"/>
<path d="M2655 670 c-4 -6 -15 -8 -26 -5 -22 7 -59 -2 -59 -16 0 -14 48 -11 53 4 4 10 6 10 6 0 1 -19 15 -16 29 7 7 11 10 20 8 20 -3 0 -8 -5 -11 -10z"/>
<path d="M2780 650 c-12 -8 -11 -10 8 -10 12 0 22 5 22 10 0 13 -11 13 -30 0z"/>
</g>
<g id="layer106" fill="#c9b21c" stroke="none">
<path d="M2955 4432 c-10 -10 -15 -11 -11 -4 6 10 1 11 -20 6 -16 -4 -34 -7 -41 -7 -7 0 -13 -4 -13 -9 0 -4 -3 -7 -7 -7 -5 1 -10 1 -13 0 -3 -1 -22 -3 -43 -5 -22 -2 -42 -9 -47 -16 -4 -7 -16 -9 -29 -5 -18 5 -21 2 -22 -22 -2 -23 -2 -24 -6 -5 -5 27 -15 28 -38 2 -10 -11 -23 -20 -28 -20 -6 0 -2 9 8 20 17 19 17 19 -13 10 -17 -4 -37 -12 -44 -16 -6 -4 -43 -8 -82 -9 -204 -6 -410 -30 -400 -47 4 -7 -23 -9 -77 -8 -46 2 -90 2 -96 1 -10 -1 -13 -34 -13 -131 l0 -130 92 0 c115 0 112 -8 -5 -12 l-87 -3 0 -462 c0 -255 3 -463 8 -463 4 0 16 12 27 25 11 14 26 31 33 38 58 53 80 75 95 97 10 14 15 18 11 10 -3 -8 10 3 30 24 20 22 36 43 36 47 0 4 9 11 21 14 11 4 29 21 40 38 10 18 19 28 19 24 0 -5 7 -2 15 7 8 8 15 19 15 25 0 6 7 11 16 11 8 0 13 3 11 8 -2 4 4 15 15 25 10 9 18 15 18 12 0 -5 125 120 151 151 9 10 64 66 123 123 58 57 106 107 106 113 0 5 5 6 10 3 6 -3 10 1 10 9 0 9 4 16 10 16 15 0 100 89 100 105 0 8 6 15 14 15 13 0 94 73 106 96 3 5 8 8 13 7 4 -2 7 4 7 12 0 8 4 15 8 15 14 0 115 107 132 140 9 17 19 28 23 24 10 -10 8 38 -2 55 -15 23 -73 22 -98 -2 -13 -11 -23 -16 -23 -10 0 6 14 23 30 37 28 23 29 26 13 35 -28 15 -89 11 -108 -7z m-667 -409 c-26 -2 -71 -2 -100 0 -29 2 -8 3 47 3 55 0 79 -1 53 -3z m225 0 c-13 -2 -33 -2 -45 0 -13 2 -3 4 22 4 25 0 35 -2 23 -4z m75 0 c-10 -2 -26 -2 -35 0 -10 3 -2 5 17 5 19 0 27 -2 18 -5z m100 0 c-16 -2 -40 -2 -55 0 -16 2 -3 4 27 4 30 0 43 -2 28 -4z m100 0 c-10 -2 -28 -2 -40 0 -13 2 -5 4 17 4 22 1 32 -1 23 -4z"/>
<path d="M3093 2722 c-24 -26 -50 -56 -59 -67 -8 -11 -12 -13 -9 -5 4 8 -4 2 -19 -15 -14 -16 -25 -34 -26 -38 0 -5 -5 -5 -10 -2 -6 3 -18 -7 -28 -24 -9 -17 -27 -36 -39 -42 -13 -7 -32 -28 -43 -46 -11 -19 -25 -31 -30 -28 -6 3 -10 2 -10 -3 0 -9 -543 -555 -689 -694 -40 -38 -69 -68 -66 -68 3 0 -4 -9 -15 -20 -11 -11 -23 -20 -26 -20 -3 0 -30 -26 -60 -57 l-53 -58 0 -382 -1 -381 28 -10 27 -10 -27 -1 c-24 -1 -28 -5 -28 -31 0 -24 6 -33 33 -44 25 -11 28 -15 12 -16 -11 -1 -23 -2 -27 -1 -4 0 -5 -6 -2 -14 5 -11 2 -13 -10 -9 -21 8 -21 -10 0 -30 18 -19 36 -12 32 12 -2 10 4 17 17 17 55 4 60 5 47 14 -9 5 -4 8 16 7 23 -1 28 -4 20 -14 -8 -9 21 -12 141 -12 105 0 151 3 151 11 0 8 5 7 15 -1 13 -11 32 -11 99 -1 70 11 83 15 79 29 -3 12 -15 17 -41 17 -26 0 -37 4 -37 15 0 17 47 26 73 14 10 -4 32 -8 51 -9 25 -2 35 2 38 16 3 10 13 21 23 24 10 3 21 12 24 20 4 11 0 12 -19 5 -16 -6 -25 -6 -25 0 0 6 5 11 10 11 6 1 15 3 20 4 6 1 15 3 21 4 6 0 65 56 130 123 66 68 172 175 235 239 114 117 114 117 114 165 0 40 -4 52 -22 63 -21 13 -21 14 -3 27 18 13 17 14 -8 14 -15 0 -27 5 -27 11 0 6 7 8 15 5 9 -3 18 1 22 10 5 13 7 13 14 2 6 -9 9 -4 9 15 0 15 -5 27 -11 27 -8 0 -8 4 0 14 17 21 11 606 -6 606 -7 0 -13 5 -13 11 0 5 4 8 9 5 14 -9 29 17 26 44 -1 14 -3 77 -4 141 l-1 117 -37 -19 c-43 -22 -74 -26 -55 -7 7 7 27 17 44 22 18 6 32 15 30 19 -2 5 4 14 12 20 13 10 14 19 6 46 -5 19 -6 37 -2 40 9 7 3 221 -6 220 -4 0 -26 -21 -49 -47z m-62 -383 c29 -15 14 -29 -32 -29 -38 0 -38 1 -21 19 20 23 27 24 53 10z m-141 -154 c-7 -8 -19 -15 -28 -15 -11 0 -9 6 9 23 25 23 40 17 19 -8z m-50 -76 c0 -5 -7 -9 -15 -9 -15 0 -20 12 -9 23 8 8 24 -1 24 -14z m225 -159 c17 0 21 -45 4 -55 -21 -14 -45 23 -41 62 4 33 6 35 13 15 5 -12 15 -22 24 -22z m-275 -24 c0 -18 -17 8 -24 34 l-7 25 15 -25 c9 -14 15 -29 16 -34z m5 -46 c4 -6 11 -7 17 -4 6 4 8 2 4 -4 -3 -6 -2 -13 4 -17 5 -3 10 -1 10 6 0 8 7 6 19 -5 12 -11 17 -25 14 -34 -5 -12 -2 -14 12 -8 11 4 16 4 13 1 -4 -4 5 -20 20 -37 15 -16 27 -36 27 -43 0 -7 15 -30 33 -51 19 -21 29 -40 23 -43 -6 -4 5 -29 26 -59 38 -57 39 -82 1 -37 -13 15 -35 40 -50 55 -14 16 -30 39 -34 52 -8 26 -105 147 -153 191 -17 16 -31 33 -31 38 0 12 37 11 45 -1z m321 -108 c-9 -8 -26 10 -26 26 1 15 2 15 15 -2 8 -11 13 -21 11 -24z m-1086 -1012 c0 -12 -8 -12 -35 0 -18 8 -17 9 8 9 15 1 27 -3 27 -9z"/>
<path d="M2995 2330 c-4 -6 6 -10 22 -10 22 0 25 2 13 10 -19 12 -27 12 -35 0z"/>
</g>
<g id="layer107" fill="#ecd95d" stroke="none">
<path d="M3030 4351 l-25 -7 23 -6 c28 -8 54 0 46 13 -6 10 -8 10 -44 0z"/>
<path d="M2530 4331 c0 -4 14 -8 31 -9 17 -1 28 2 25 7 -6 10 -56 12 -56 2z"/>
<path d="M2675 4320 c-3 -5 -15 -10 -26 -10 -10 0 -19 -4 -19 -10 0 -12 50 -13 69 -1 7 5 10 14 7 20 -9 14 -23 14 -31 1z"/>
<path d="M3130 2405 c-10 -12 -10 -15 4 -15 9 0 16 7 16 15 0 8 -2 15 -4 15 -2 0 -9 -7 -16 -15z"/>
<path d="M3000 1711 c0 -12 29 -35 36 -28 4 3 -1 13 -9 22 -17 17 -27 19 -27 6z"/>
<path d="M3000 1523 c1 -23 18 -35 36 -24 11 6 16 11 12 12 -5 1 -11 2 -15 3 -5 1 -14 5 -20 9 -7 5 -13 5 -13 0z"/>
<path d="M2923 1250 c-34 -14 -28 -21 7 -9 17 6 30 13 30 15 0 6 -12 4 -37 -6z"/>
<path d="M3020 1169 c0 -5 -4 -7 -10 -4 -5 3 -10 2 -10 -4 0 -20 18 -20 41 -1 l24 19 -22 1 c-13 0 -23 -5 -23 -11z"/>
<path d="M2898 1042 c-10 -2 -18 -12 -18 -23 0 -18 1 -18 21 2 23 23 22 27 -3 21z"/>
<path d="M1983 833 c9 -2 25 -2 35 0 9 3 1 5 -18 5 -19 0 -27 -2 -17 -5z"/>
<path d="M2534 732 c5 -8 76 -4 76 4 0 2 -18 4 -41 4 -22 0 -38 -4 -35 -8z"/>
<path d="M2452 673 c-27 -3 -45 -10 -49 -19 -4 -12 -8 -13 -13 -3 -5 7 -16 9 -26 5 -13 -5 -14 -10 -6 -18 8 -8 33 -8 96 1 73 11 83 15 71 27 -7 8 -17 13 -22 12 -4 -1 -27 -3 -51 -5z"/>
<path d="M2117 647 c4 -6 -8 -8 -30 -4 -20 3 -39 1 -42 -4 -4 -5 33 -9 91 -9 54 0 95 3 92 6 -11 11 -117 21 -111 11z"/>
<path d="M2251 651 c-10 -6 -9 -10 4 -15 27 -10 85 -7 85 5 0 7 -11 8 -31 4 -19 -4 -34 -3 -38 3 -4 6 -12 7 -20 3z"/>
<path d="M1931 643 c-1 -7 -8 -10 -16 -7 -20 8 -19 -10 1 -31 22 -22 38 -6 25 26 -5 13 -10 19 -10 12z"/>
</g>
<g id="layer108" fill="#d6d0a6" stroke="none">
<path d="M2400 651 c0 -4 -12 -6 -27 -3 -22 3 -25 2 -16 -8 13 -14 137 -4 127 11 -7 11 -84 12 -84 0z"/>
<path d="M2704 648 c-3 -4 4 -8 15 -8 12 0 21 4 21 8 0 5 -7 9 -15 9 -9 0 -18 -4 -21 -9z"/>
<path d="M2085 640 c-40 -6 -31 -7 50 -8 64 0 93 3 80 8 -23 10 -58 10 -130 0z"/>
<path d="M1900 631 c0 -5 7 -17 16 -26 13 -12 20 -13 28 -5 8 8 6 15 -8 26 -23 16 -36 18 -36 5z"/>
</g>


</svg>