<!DOCTYPE svg PUBLIC "-//W3C//DTD SVG 20010904//EN" "http://www.w3.org/TR/2001/REC-SVG-20010904/DTD/svg10.dtd">
<svg version="1.0" xmlns="http://www.w3.org/2000/svg" width="61px" height="677px" viewBox="0 0 610 6770" preserveAspectRatio="xMidYMid meet">
<g id="layer101" fill="#000000" stroke="none">
<path d="M30 3380 l0 -3380 270 0 270 0 0 3380 0 3380 -270 0 -270 0 0 -3380z"/>
</g>
<g id="layer102" fill="#5e540c" stroke="none">
</g>
<g id="layer103" fill="#f4d920" stroke="none">
<path d="M30 6675 l0 -90 270 -270 270 -270 -2 95 -1 95 -269 265 -268 265 0 -90z"/>
<path d="M395 6590 l170 -170 3 88 3 89 -83 81 -83 82 -90 0 -90 0 170 -170z"/>
<path d="M30 6300 l0 -95 270 -270 270 -270 0 95 0 95 -270 270 -270 270 0 -95z"/>
<path d="M30 5930 l0 -95 270 -270 270 -270 0 95 0 95 -270 270 -270 270 0 -95z"/>
<path d="M30 5560 l0 -95 270 -270 270 -270 0 95 0 95 -270 270 -270 270 0 -95z"/>
<path d="M30 5190 l0 -95 270 -270 270 -270 0 95 0 95 -270 270 -270 270 0 -95z"/>
<path d="M30 4820 l0 -95 270 -270 270 -270 0 95 0 95 -270 270 -270 270 0 -95z"/>
<path d="M30 4450 l0 -95 270 -270 270 -270 0 95 0 95 -270 270 -270 270 0 -95z"/>
<path d="M30 4080 l0 -95 270 -270 270 -270 0 95 0 95 -270 270 -270 270 0 -95z"/>
<path d="M30 3710 l0 -95 270 -270 270 -270 0 95 0 95 -270 270 -270 270 0 -95z"/>
<path d="M30 3340 l0 -95 270 -270 270 -270 0 95 0 95 -270 270 -270 270 0 -95z"/>
<path d="M30 2970 l0 -95 270 -270 270 -270 0 95 0 95 -270 270 -270 270 0 -95z"/>
<path d="M30 2600 l0 -95 270 -270 270 -270 0 95 0 95 -270 270 -270 270 0 -95z"/>
<path d="M30 2225 l0 -90 270 -270 270 -270 0 90 0 90 -270 270 -270 270 0 -90z"/>
<path d="M30 1855 l0 -90 270 -270 270 -270 0 90 0 90 -270 270 -270 270 0 -90z"/>
<path d="M30 1485 l0 -90 270 -270 270 -270 0 90 0 90 -270 270 -270 270 0 -90z"/>
<path d="M30 1115 l0 -90 270 -270 270 -270 0 90 0 90 -270 270 -270 270 0 -90z"/>
<path d="M30 745 l0 -90 270 -270 270 -270 0 90 0 90 -270 270 -270 270 0 -90z"/>
<path d="M30 375 l0 -90 143 -143 143 -143 87 3 87 3 -230 230 -230 230 0 -90z"/>
<path d="M30 47 l0 -47 45 0 c25 0 45 1 45 3 0 2 -20 23 -45 47 l-45 44 0 -47z"/>
</g>


</svg>